<svg xmlns="http://www.w3.org/2000/svg" viewBox="0 0 692.08 438.02"><defs><style>.cls-1{fill:#212529;}</style></defs><title>Asset 1</title><g id="Layer_2" data-name="Layer 2"><g id="Layer_1-2" data-name="Layer 1"><polygon class="cls-1" points="542.26 45.97 215.93 93.14 215.93 61.7 161.88 61.7 161.88 100.96 0 124.36 7.73 177.86 161.88 155.57 161.88 438.02 215.93 438.02 215.93 147.76 515.84 104.41 542.26 45.97"/><polygon class="cls-1" points="684.35 25.43 636.4 32.36 609.99 90.8 692.08 78.93 684.35 25.43"/><polygon class="cls-1" points="626.6 22.32 577.37 0 557.6 43.75 531.18 102.19 405.65 379.87 293.85 182.96 246.85 209.67 376.53 438.02 438.7 438.02 594.65 93.02 621.06 34.58 626.6 22.32"/><rect class="cls-1" x="56.1" y="282.52" width="54.06" height="155.49"/><rect class="cls-1" x="56.1" y="203.52" width="54.06" height="54.06"/></g></g></svg>